<svg width="84" height="84" viewBox="0 0 84 84" fill="none" xmlns="http://www.w3.org/2000/svg">
<path d="M32.125 8.75C32.125 8.05381 31.8484 7.38613 31.3561 6.89384C30.8639 6.40156 30.1962 6.125 29.5 6.125C28.8038 6.125 28.1361 6.40156 27.6438 6.89384C27.1516 7.38613 26.875 8.05381 26.875 8.75V14.28C21.835 14.6825 18.531 15.6695 16.102 18.102C13.6695 20.531 12.6825 23.8385 12.2765 28.875H81.7235C81.3175 23.835 80.3305 20.531 77.898 18.102C75.469 15.6695 72.1615 14.6825 67.125 14.2765V8.75C67.125 8.05381 66.8484 7.38613 66.3561 6.89384C65.8639 6.40156 65.1962 6.125 64.5 6.125C63.8038 6.125 63.1361 6.40156 62.6438 6.89384C62.1515 7.38613 61.875 8.05381 61.875 8.75V14.0455C59.5475 14 56.9365 14 54 14H40C37.0635 14 34.4525 14 32.125 14.0455V8.75Z" fill="#EA6D27"/>
<path fill-rule="evenodd" clip-rule="evenodd" d="M12 42C12 39.0635 12 36.4525 12.0455 34.125H81.9545C82 36.4525 82 39.0635 82 42V49C82 62.1985 82 68.7995 77.898 72.898C73.796 76.9965 67.1985 77 54 77H40C26.8015 77 20.2005 77 16.102 72.898C12.0035 68.796 12 62.1985 12 49V42ZM64.5 49C65.4283 49 66.3185 48.6313 66.9749 47.9749C67.6313 47.3185 68 46.4283 68 45.5C68 44.5717 67.6313 43.6815 66.9749 43.0251C66.3185 42.3687 65.4283 42 64.5 42C63.5717 42 62.6815 42.3687 62.0251 43.0251C61.3687 43.6815 61 44.5717 61 45.5C61 46.4283 61.3687 47.3185 62.0251 47.9749C62.6815 48.6313 63.5717 49 64.5 49ZM64.5 63C65.4283 63 66.3185 62.6313 66.9749 61.9749C67.6313 61.3185 68 60.4283 68 59.5C68 58.5717 67.6313 57.6815 66.9749 57.0251C66.3185 56.3687 65.4283 56 64.5 56C63.5717 56 62.6815 56.3687 62.0251 57.0251C61.3687 57.6815 61 58.5717 61 59.5C61 60.4283 61.3687 61.3185 62.0251 61.9749C62.6815 62.6313 63.5717 63 64.5 63ZM50.5 45.5C50.5 46.4283 50.1312 47.3185 49.4749 47.9749C48.8185 48.6313 47.9283 49 47 49C46.0717 49 45.1815 48.6313 44.5251 47.9749C43.8687 47.3185 43.5 46.4283 43.5 45.5C43.5 44.5717 43.8687 43.6815 44.5251 43.0251C45.1815 42.3687 46.0717 42 47 42C47.9283 42 48.8185 42.3687 49.4749 43.0251C50.1312 43.6815 50.5 44.5717 50.5 45.5ZM50.5 59.5C50.5 60.4283 50.1312 61.3185 49.4749 61.9749C48.8185 62.6313 47.9283 63 47 63C46.0717 63 45.1815 62.6313 44.5251 61.9749C43.8687 61.3185 43.5 60.4283 43.5 59.5C43.5 58.5717 43.8687 57.6815 44.5251 57.0251C45.1815 56.3687 46.0717 56 47 56C47.9283 56 48.8185 56.3687 49.4749 57.0251C50.1312 57.6815 50.5 58.5717 50.5 59.5ZM29.5 49C30.4283 49 31.3185 48.6313 31.9749 47.9749C32.6313 47.3185 33 46.4283 33 45.5C33 44.5717 32.6313 43.6815 31.9749 43.0251C31.3185 42.3687 30.4283 42 29.5 42C28.5717 42 27.6815 42.3687 27.0251 43.0251C26.3687 43.6815 26 44.5717 26 45.5C26 46.4283 26.3687 47.3185 27.0251 47.9749C27.6815 48.6313 28.5717 49 29.5 49ZM29.5 63C30.4283 63 31.3185 62.6313 31.9749 61.9749C32.6313 61.3185 33 60.4283 33 59.5C33 58.5717 32.6313 57.6815 31.9749 57.0251C31.3185 56.3687 30.4283 56 29.5 56C28.5717 56 27.6815 56.3687 27.0251 57.0251C26.3687 57.6815 26 58.5717 26 59.5C26 60.4283 26.3687 61.3185 27.0251 61.9749C27.6815 62.6313 28.5717 63 29.5 63Z" fill="#EA6D27"/>
</svg>
