<svg width="84" height="84" viewBox="0 0 84 84" fill="none" xmlns="http://www.w3.org/2000/svg">
<g clip-path="url(#clip0_36_330)">
<path d="M78.5 31.5C74.65 31.5 71.5 34.65 71.5 38.5V52.5H22.5V38.5C22.5 34.65 19.35 31.5 15.5 31.5C11.65 31.5 8.5 34.65 8.5 38.5V56C8.5 61.775 13.225 66.5 19 66.5V70C19 71.925 20.575 73.5 22.5 73.5C24.425 73.5 26 71.925 26 70V66.5H68V70C68 71.925 69.575 73.5 71.5 73.5C73.425 73.5 75 71.925 75 70V66.5C80.775 66.5 85.5 61.775 85.5 56V38.5C85.5 34.65 82.35 31.5 78.5 31.5Z" fill="#EA6D27"/>
<path d="M29.5 38.5V45.5H64.5V38.5C64.5 31.99 68.98 26.565 75 24.99V21C75 15.225 70.275 10.5 64.5 10.5H29.5C23.725 10.5 19 15.225 19 21V24.99C25.02 26.565 29.5 31.99 29.5 38.5Z" fill="#EA6D27"/>
</g>
<defs>
<clipPath id="clip0_36_330">
<rect width="84" height="84" fill="white"/>
</clipPath>
</defs>
</svg>
