<svg width="84" height="84" viewBox="0 0 84 84" fill="none" xmlns="http://www.w3.org/2000/svg">
<path d="M71.5 66.507V73.5C71.4998 74.3573 71.1851 75.1847 70.6154 75.8253C70.0458 76.4659 69.2608 76.8752 68.4095 76.9755L68 77H26C25.0717 77 24.1815 76.6313 23.5251 75.9749C22.8687 75.3185 22.5 74.4283 22.5 73.5V66.521C22.5 65.5927 22.8687 64.7025 23.5251 64.0461C24.1815 63.3897 25.0717 63.021 26 63.021L68 63.007C68.9282 63.007 69.8185 63.3757 70.4748 64.0321C71.1312 64.6885 71.5 65.5787 71.5 66.507ZM47 7C50.3325 6.99937 53.5958 7.95027 56.4064 9.74089C59.217 11.5315 61.4578 14.0874 62.8655 17.108L63.0755 17.5875L63.5515 17.556C67.3956 17.3821 71.1898 18.4801 74.347 20.68C77.5042 22.8799 79.8483 26.0591 81.0165 29.7255L81.237 30.471C82.312 34.4393 81.9556 38.6594 80.2301 42.3911C78.5047 46.1229 75.5206 49.128 71.801 50.8795L71.4965 51.009V56.007C71.4965 56.9353 71.1277 57.8255 70.4713 58.4819C69.8149 59.1382 68.9247 59.507 67.9965 59.507L25.9965 59.521C25.1392 59.5209 24.3118 59.2062 23.6712 58.6365C23.0305 58.0668 22.6213 57.2819 22.521 56.4305L22.4965 56.021V51.0055L22.066 50.813C19.9122 49.7765 17.9937 48.3098 16.4286 46.5033C14.8635 44.6968 13.6851 42.5889 12.966 40.3095L12.742 39.529C12.0267 36.8348 11.9653 34.0087 12.5631 31.286C13.1608 28.5633 14.4003 26.0227 16.1784 23.8759C17.9564 21.7291 20.2216 20.038 22.7854 18.9436C25.3491 17.8492 28.1372 17.3831 30.9175 17.584L31.1485 17.087C32.5008 14.1947 34.6187 11.7275 37.2728 9.95258C39.9268 8.17766 43.0159 7.16266 46.2055 7.0175L47 7Z" fill="#EA6D27"/>
</svg>
