<svg width="84" height="84" viewBox="0 0 84 84" fill="none" xmlns="http://www.w3.org/2000/svg">
<path d="M67.838 33.4668C65.2241 29.3713 61.7079 25.9282 57.5585 23.4008C60.915 22.7008 61.6045 22.1338 61.965 21.6508C62.0885 21.4943 62.1789 21.3143 62.2306 21.1217C62.2824 20.9292 62.2944 20.7281 62.266 20.5308C61.9615 18.4553 59.081 17.6118 52.319 17.6118C49.344 17.6118 46.4005 17.7903 44.7275 17.9163L45.375 8.4873C45.3863 8.32898 45.3658 8.17001 45.3147 8.01974C45.2636 7.86947 45.1829 7.73094 45.0775 7.6123C44.9718 7.49322 44.8434 7.39656 44.6997 7.32802C44.556 7.25948 44.4 7.22048 44.241 7.2133L39.733 6.9998C39.5767 6.9913 39.4202 7.01374 39.2726 7.06581C39.1249 7.11789 38.989 7.19859 38.8726 7.30328C38.7562 7.40797 38.6616 7.53461 38.5943 7.67592C38.5269 7.81723 38.488 7.97045 38.48 8.1268L37.913 18.0633C35.4957 17.9261 33.0752 17.8549 30.654 17.8498C22.513 17.8498 20.875 18.8998 20.315 20.0443C20.2127 20.2486 20.1595 20.4739 20.1595 20.7023C20.1595 20.9307 20.2127 21.156 20.315 21.3603C20.5915 21.9203 21.1655 22.5468 24.3085 23.4918C19.6775 26.3399 15.8537 30.3273 13.2018 35.0734C10.55 39.8196 9.1586 45.1661 9.16049 50.6028C9.02594 54.4354 9.8141 58.2443 11.4586 61.7088C13.1032 65.1733 15.5559 68.192 18.6105 70.5108C25.1717 75.0462 33.0304 77.3238 41 76.9998C48.9751 77.321 56.838 75.0371 63.4 70.4933C66.4545 68.1745 68.9073 65.1558 70.5519 61.6913C72.1964 58.2268 72.9845 54.4179 72.85 50.5853C72.8497 44.5174 71.1104 38.5767 67.838 33.4668ZM41.539 24.6188C41.3356 24.4708 41.0905 24.3911 40.839 24.3911C40.5875 24.3911 40.3424 24.4708 40.139 24.6188C36.3515 27.371 32.4176 29.9157 28.3545 32.2418C29.7413 29.658 31.2976 27.1687 33.013 24.7903C33.1295 24.6266 33.2026 24.4362 33.2257 24.2366C33.2487 24.037 33.2208 23.8349 33.1446 23.649C33.0685 23.4632 32.9465 23.2996 32.79 23.1736C32.6336 23.0475 32.4478 22.9632 32.25 22.9283C29.3126 22.3793 26.4133 21.6428 23.57 20.7233C25.9037 20.3177 28.2725 20.15 30.64 20.2228C34.8085 20.2228 38.893 20.5203 38.935 20.5238C39.0928 20.536 39.2515 20.5166 39.4018 20.4667C39.552 20.4168 39.6908 20.3375 39.81 20.2333C40.0484 20.0204 40.1941 19.7227 40.216 19.4038L40.797 9.4498L42.897 9.5513L42.2495 19.1448C42.2362 19.3172 42.2606 19.4904 42.321 19.6524C42.3815 19.8144 42.4765 19.9613 42.5995 20.0828C42.7234 20.2036 42.8721 20.2959 43.0353 20.3533C43.1985 20.4108 43.3723 20.4319 43.5445 20.4153C43.5865 20.4153 47.986 20.0093 52.312 20.0093C54.5559 19.92 56.8021 20.1152 58.997 20.5903C56.2077 21.2875 53.3761 21.8031 50.52 22.1338C50.315 22.1578 50.1198 22.2348 49.9535 22.3571C49.7873 22.4793 49.6557 22.6428 49.5717 22.8313C49.4876 23.0198 49.4541 23.2269 49.4743 23.4323C49.4945 23.6377 49.5678 23.8343 49.687 24.0028C51.6124 26.5764 53.174 29.403 54.328 32.4028C49.8028 30.2658 45.516 27.6566 41.539 24.6188Z" fill="#EA6D27"/>
</svg>
